<svg xmlns="http://www.w3.org/2000/svg" width="300" height="184" viewBox="0 0 600 368"><rect x="0" y="0" width="600" height="368" fill="white"></rect><g transform="translate(193.76999999999998,108.94500000000001)"><g transform="translate(153.64000000000001,55.37)"><rect x="4" y="3" rx="1" ry="1" width="20" height="20" fill="#666"></rect></g><g transform="translate(153.64000000000001,0)"><rect x="4" y="3" rx="1" ry="1" width="20" height="20" fill="#666"></rect></g><g transform="translate(153.64000000000001,110.74)"><rect x="4" y="3" rx="1" ry="1" width="20" height="20" fill="#666"></rect></g><g transform="translate(76.82000000000001,55.37)"><rect x="1" y="10.5" width="52" height="6" rx="3" fill="#F6A035"></rect></g><g transform="translate(76.82000000000001,110.74)"><rect x="1" y="10.5" width="52" height="6" rx="3" fill="#86AF6A"></rect></g><g transform="translate(0,110.74)"><circle cx="31" cy="13" r="11" fill="#86AF6A"></circle></g><g transform="translate(0,0)"><circle cx="31" cy="13" r="11" fill="#3D7FA6"></circle></g><g transform="translate(76.82000000000001,0)"><rect x="1" y="10.5" width="52" height="6" rx="3" fill="#3D7FA6"></rect></g><g transform="translate(0,55.37)"><circle cx="31" cy="13" r="11" fill="#F6A035"></circle></g></g></svg>